<svg width="250" height="187" viewBox="0 0 250 187" fill="none" xmlns="http://www.w3.org/2000/svg">
<g clip-path="url(#clip0_1_4959)">
<path d="M215.751 180.235L163.514 180.43C149.656 175.755 138.302 159.52 138.23 135.178C138.216 131.511 138.463 127.849 138.968 124.226L181.042 113.615L213.5 105.43C215.892 107.834 218.12 110.435 220.167 113.212L189.13 131.609L174.489 140.288L190.941 133.916L225.09 120.691C227.219 124.346 229.117 128.165 230.768 132.12L220.465 144.073L232.12 135.507C232.17 135.638 232.22 135.77 232.269 135.902C239.656 155.587 230.491 180.181 215.751 180.235Z" fill="#F2F2F2"/>
<path d="M207.166 99.9205C199.267 102.467 189.555 105.685 179.57 109.029C165.132 113.867 150.124 118.971 139.197 122.702L139.204 122.659C139.608 120.04 140.558 117.566 141.975 115.438C150.069 103.625 160.376 95.372 171.847 92.3072H171.848C175.074 91.4435 178.377 91.0011 181.693 90.9887C190.82 90.9547 199.464 94.1679 207.166 99.9205Z" fill="#F2F2F2"/>
<path d="M57.6344 143.432L48.603 173.796L46.3856 181.255C45.318 183.066 44.0456 184.714 42.6002 186.157H42.3883C31.0095 186.157 20.6768 185.499 13.0629 184.433L14.1226 175.313L16.397 155.752L19.3049 130.703C21.0239 129.445 22.824 128.332 24.69 127.374L27.2538 153.355L28.464 165.612L28.8149 152.488L29.5419 125.248C31.8346 124.416 34.1792 123.776 36.5565 123.335L40.3646 133.082L38.5642 123.007C38.6417 122.997 38.7192 122.984 38.7967 122.974C50.3578 121.411 60.8067 132.759 57.6344 143.432Z" fill="#F2F2F2"/>
<path d="M15.1436 134.228C14.7151 140.431 14.2343 148.073 13.7557 155.939C13.3546 162.552 12.9581 169.321 12.6003 175.522C12.4225 178.615 12.2539 181.567 12.1012 184.289C10.8067 184.097 9.59661 183.89 8.48221 183.675C7.38281 181.484 6.4431 179.196 5.67228 176.835C3.71239 170.83 2.96261 164.535 3.62123 158.316V158.313C3.88603 155.806 4.37935 153.335 5.09342 150.94C7.04053 144.455 10.513 138.68 15.1436 134.228Z" fill="#F2F2F2"/>
<path d="M84.7767 179.943C84.7767 183.366 65.9116 186.139 42.6003 186.157H42.3883C31.0096 186.157 20.6768 185.499 13.0629 184.433C12.737 184.384 12.4157 184.338 12.1012 184.289C10.8067 184.097 9.59663 183.89 8.48222 183.675C3.15634 182.634 0 181.342 0 179.943C0 178.81 2.06472 177.751 5.67229 176.835C7.57748 176.351 9.91112 175.911 12.6003 175.522C13.0948 175.448 13.6023 175.378 14.1226 175.313C21.6226 174.328 31.5292 173.729 42.3883 173.729C44.4986 173.729 46.5747 173.752 48.603 173.796C69.0656 174.236 84.7767 176.819 84.7767 179.943Z" fill="#3F3D56"/>
<path d="M34.1678 125.545L35.2329 134.87C35.2329 134.87 35.6589 137.978 36.085 139.652C36.085 139.652 35.6589 148.499 39.0671 154.716L41.1972 159.26L41.6232 165.955L46.9485 166.672L45.8835 156.629C45.8835 156.629 45.4575 151.847 45.8835 149.934C46.3095 148.021 43.7534 139.174 43.7534 139.174C43.7534 139.174 47.1615 126.74 44.6054 123.632C42.0493 120.523 34.1678 125.545 34.1678 125.545Z" fill="#DAAB85"/>
<path d="M43.5404 164.042C43.5404 164.042 41.1972 164.042 40.9842 164.759C40.7712 165.477 37.363 171.933 37.363 171.933C37.363 171.933 34.3809 177.193 38.6411 177.432C42.9013 177.672 44.1794 175.519 44.1794 175.519C44.1794 175.519 48.0136 168.585 48.2266 167.39C48.4396 166.194 46.6261 163.632 46.6261 163.632C46.6261 163.632 44.1794 165.477 43.5404 164.042Z" fill="#2F2E41"/>
<path d="M46.5225 46.876C50.5223 46.876 53.7649 43.2361 53.7649 38.7461C53.7649 34.2561 50.5223 30.6162 46.5225 30.6162C42.5226 30.6162 39.2801 34.2561 39.2801 38.7461C39.2801 43.2361 42.5226 46.876 46.5225 46.876Z" fill="#DAAB85"/>
<path d="M40.6647 41.257C40.6647 41.257 40.6647 50.1042 37.8955 50.8215C35.1264 51.5389 41.7297 59.6687 45.3509 58.7123C48.9721 57.7558 50.4632 51.2997 50.4632 51.2997C50.4632 51.2997 47.2681 46.7566 48.5461 44.3654C49.8242 41.9743 40.6647 41.257 40.6647 41.257Z" fill="#DAAB85"/>
<path d="M43.7534 53.5714C42.7367 53.5356 41.7423 53.2274 40.8533 52.6723C39.9643 52.1173 39.2065 51.3315 38.6432 50.3807C38.6432 50.3807 35.659 50.9412 35.233 51.1803C34.807 51.4194 27.3516 54.0496 25.6475 59.5493L32.4638 69.3529C32.4638 69.3529 30.9727 83.2215 32.4638 89.4385C33.3517 93.1622 33.1272 97.1101 31.8248 100.677C31.8248 100.677 31.1858 100.916 32.2508 101.394C33.3159 101.872 57.8122 96.3728 58.2382 94.9381C58.6642 93.5034 57.8122 93.5034 58.4512 92.7861C59.0902 92.0687 60.7943 87.7647 59.0902 86.33C57.3861 84.8953 56.3211 69.1138 56.3211 69.1138L60.7943 56.4408C60.7943 56.4408 52.6189 49.1063 49.6772 50.0237C49.6772 50.0237 49.0787 53.5714 43.7534 53.5714Z" fill="#D0CDE1"/>
<path d="M46.5225 120.762C46.5225 120.762 46.0965 131.283 46.9485 135.348C47.8006 139.413 47.8006 141.087 47.8006 141.087C47.8006 141.087 46.5225 148.021 47.1616 154.477C47.8006 160.933 46.416 171.34 46.416 171.34L51.6348 173.128L54.83 154.956C54.83 154.956 57.3861 143.717 55.895 138.457C55.895 138.457 56.7471 122.436 57.3861 120.762C58.0251 119.089 46.5225 120.762 46.5225 120.762Z" fill="#DAAB85"/>
<path d="M40.8067 40.1941C40.9027 39.4315 41.1058 38.5997 41.685 38.187C42.2864 37.7586 43.0627 37.9343 43.773 37.9926C44.4834 38.0509 45.3538 37.8515 45.5873 37.0961C45.7329 36.6252 45.5756 36.0623 45.8027 35.6339C46.1642 34.9522 47.2677 35.03 47.4581 34.2659C47.5184 34.0239 47.4598 33.7538 47.5468 33.5223C47.6642 33.21 47.9938 33.0855 48.2879 33.009C49.3636 32.7297 50.4687 32.6203 51.5713 32.6842C51.6792 32.7059 51.7904 32.6812 51.8828 32.615C51.9315 32.5608 51.9662 32.4929 51.9834 32.4185C52.2328 31.5812 51.9686 30.6313 51.4723 29.9465C50.9452 29.2869 50.2952 28.7656 49.5686 28.4195C47.9596 27.5436 46.2156 27.0233 44.4315 26.887C43.0728 26.7912 41.6465 26.9572 40.4892 27.762C40.1462 28.0056 39.8279 28.2904 39.54 28.6115C38.281 30.0287 37.4602 31.8619 37.1981 33.8416C36.9439 35.8166 37.1407 37.8317 37.7702 39.6979C38.1379 40.8213 38.7179 41.9816 39.6152 42.6739C40.0962 43.045 40.5109 43.3875 40.7106 42.7575C40.9225 42.0893 40.7134 40.9345 40.8067 40.1941Z" fill="#2F2E41"/>
<path d="M32.8898 99.2421C32.8898 99.2421 29.6946 104.024 30.3336 107.372C30.9727 110.72 33.3158 116.219 33.3158 116.219C33.3158 116.219 32.0377 126.979 34.1679 126.979C36.298 126.979 45.4575 126.501 45.6705 125.306C45.8835 124.11 45.0314 112.154 45.0314 112.154C45.0314 112.154 46.0965 122.675 46.7355 122.675C47.3746 122.675 58.4511 123.871 58.8772 123.153C59.3032 122.436 60.1552 104.024 60.1552 104.024C60.1552 104.024 61.317 95.341 57.6475 94.1831C53.9779 93.0251 32.8898 99.2421 32.8898 99.2421Z" fill="#2F2E41"/>
<path d="M49.9307 171.215C49.9307 171.215 46.0965 168.824 45.8835 170.737C45.6705 172.65 43.3273 179.584 43.3273 179.584C43.3273 179.584 40.9842 185.084 46.0965 185.323C51.2087 185.562 52.4868 182.932 52.4868 181.736C52.4868 180.541 51.9139 172.338 51.9139 172.338L49.9307 171.215Z" fill="#2F2E41"/>
<path d="M63.1374 69.3528L64.2025 79.8738C64.2025 79.8738 65.4805 85.6125 64.6285 88.0037C63.7764 90.3948 60.5813 101.394 60.5813 101.394C60.5813 101.394 59.7292 95.4162 57.5991 94.6989L58.8772 81.0694C58.8772 81.0694 55.8275 72.5642 56.5003 71.4367C57.1731 70.3092 63.1374 69.3528 63.1374 69.3528Z" fill="#DAAB85"/>
<path d="M25.2214 70.0701L25.6474 79.6346C25.6474 79.6346 24.1563 88.0036 27.1385 96.8508L27.5645 100.677L30.3336 106.655C30.3336 106.655 30.9727 100.916 32.2507 100.916C32.2507 100.916 30.9727 97.09 31.3987 94.9379C31.8247 92.7859 31.1857 81.3084 31.1857 81.3084L32.2507 72.0235L25.2214 70.0701Z" fill="#DAAB85"/>
<path d="M58.4512 56.2015H60.7943C60.7943 56.2015 66.3326 70.5484 64.2025 70.7875C62.0724 71.0266 55.256 72.9395 55.043 71.983C54.83 71.0266 58.4512 56.2015 58.4512 56.2015Z" fill="#D0CDE1"/>
<path d="M27.5645 57.3971L25.6474 59.5491C25.6474 59.5491 23.0913 70.3092 25.0084 71.5048C26.9255 72.7004 34.1679 74.1351 34.5939 73.1786C35.0199 72.2222 27.5645 57.3971 27.5645 57.3971Z" fill="#D0CDE1"/>
<path d="M180.283 7.60878V173.432C180.281 175.407 179.581 177.301 178.336 178.697C177.091 180.093 175.404 180.878 173.644 180.879H113.674C112.802 180.88 111.938 180.689 111.133 180.315C110.327 179.942 109.595 179.393 108.978 178.702C108.361 178.01 107.872 177.188 107.539 176.284C107.205 175.38 107.034 174.41 107.035 173.432V7.60879C107.035 6.63015 107.207 5.66108 107.54 4.75692C107.874 3.85275 108.363 3.03121 108.979 2.33921C109.596 1.6472 110.328 1.09829 111.133 0.72382C111.939 0.349349 112.802 0.156654 113.674 0.156739H122.648V1.44863C122.648 3.07592 123.224 4.63666 124.249 5.78756C125.273 6.93847 126.664 7.5853 128.113 7.58577H158.615C159.781 7.58857 160.918 7.16869 161.855 6.38853C162.045 6.23382 162.224 6.06457 162.393 5.882C162.927 5.30974 163.352 4.6217 163.642 3.85961C163.931 3.09753 164.08 2.27729 164.079 1.44863V0.156739H173.644C174.516 0.156439 175.379 0.348987 176.185 0.72338C176.991 1.09777 177.722 1.64668 178.339 2.33872C178.955 3.03077 179.444 3.85239 179.778 4.75665C180.111 5.66091 180.283 6.63008 180.283 7.60878Z" fill="#3F3D56"/>
<path opacity="0.1" d="M152.005 70.6716C161.445 70.6716 169.098 68.9535 169.098 66.8343C169.098 64.715 161.445 62.9969 152.005 62.9969C142.566 62.9969 134.913 64.715 134.913 66.8343C134.913 68.9535 142.566 70.6716 152.005 70.6716Z" fill="black"/>
<path opacity="0.1" d="M127.165 90.3698C136.605 90.3698 144.257 88.6518 144.257 86.5325C144.257 84.4132 136.605 82.6952 127.165 82.6952C117.725 82.6952 110.073 84.4132 110.073 86.5325C110.073 88.6518 117.725 90.3698 127.165 90.3698Z" fill="black"/>
<path opacity="0.1" d="M141.294 126.441C150.734 126.441 158.387 124.723 158.387 122.603C158.387 120.484 150.734 118.766 141.294 118.766C131.855 118.766 124.202 120.484 124.202 122.603C124.202 124.723 131.855 126.441 141.294 126.441Z" fill="black"/>
<path opacity="0.1" d="M136.509 165.581C145.948 165.581 153.601 163.863 153.601 161.744C153.601 159.625 145.948 157.906 136.509 157.906C127.069 157.906 119.417 159.625 119.417 161.744C119.417 163.863 127.069 165.581 136.509 165.581Z" fill="black"/>
<path d="M195.875 103.379H143.915V109.078V117.757V122.641L148.265 117.757H195.875V103.379Z" fill="#6C63FF"/>
<path d="M72.0146 66.6691H123.974V72.3682V81.0472V85.9306L119.624 81.0472H72.0146V66.6691Z" fill="#6C63FF"/>
<path d="M184.739 106.87H155.507V109.531H184.739V106.87Z" fill="white"/>
<path d="M184.739 110.861H155.507V113.522H184.739V110.861Z" fill="white"/>
<path d="M110.103 70.4159H80.8721V73.0764H110.103V70.4159Z" fill="white"/>
<path d="M110.103 74.4066H80.8721V77.0672H110.103V74.4066Z" fill="white"/>
<path d="M250 30.5078H152.005V41.2564V57.6248V66.8343L160.21 57.6248H250V30.5078Z" fill="#6C63FF"/>
<path d="M234.731 36.6475H167.274V42.7872H234.731V36.6475Z" fill="white"/>
<path d="M234.731 45.8569H167.274V51.9966H234.731V45.8569Z" fill="white"/>
<path d="M130.319 154.071C132.813 159.264 138.107 161.493 138.107 161.493C138.107 161.493 139.357 155.303 136.863 150.111C134.368 144.918 129.075 142.689 129.075 142.689C129.075 142.689 127.825 148.879 130.319 154.071Z" fill="white"/>
<path d="M132.034 152.363C136.537 155.404 138.271 161.445 138.271 161.445C138.271 161.445 132.704 162.555 128.201 159.514C123.698 156.473 121.963 150.432 121.963 150.432C121.963 150.432 127.53 149.322 132.034 152.363Z" fill="#6C63FF"/>
</g>
<defs>
<clipPath id="clip0_1_4959">
<rect width="250" height="186" fill="white" transform="translate(0 0.156738)"/>
</clipPath>
</defs>
</svg>
