<svg width="412" height="131" viewBox="0 0 412 131" fill="none" xmlns="http://www.w3.org/2000/svg">
<path d="M40 34L28.4348 49.292L40 65.4336L28.4348 81.5752L40 97.7168L28.4348 113.009L40 130" stroke="#4F47C8" stroke-width="3"/>
<path d="M26.7826 34L15.2174 49.292L26.7826 65.4336L15.2174 81.5752L26.7826 97.7168L15.2174 113.009L26.7826 130" stroke="#4F47C8" stroke-width="3"/>
<path d="M13.5652 34L2 49.292L13.5652 65.4336L2 81.5752L13.5652 97.7168L2 113.009L13.5652 130" stroke="#4F47C8" stroke-width="3"/>
<line x1="178.438" y1="27.0216" x2="178.438" y2="-2.47955e-05" stroke="#E84949" stroke-width="3"/>
<line x1="166.427" y1="12.0109" x2="192.773" y2="12.0109" stroke="#E84949" stroke-width="3"/>
<path d="M378 10.1096L393.729 2L410 10.1096M378 10.1096L393.729 18.726M378 10.1096V30.3836L393.729 39M393.729 18.726L410 10.1096M393.729 18.726V39M410 10.1096V29.8767L393.729 39" stroke="#4F47C8" stroke-width="3"/>
</svg>
