<svg width="1019" height="1019" viewBox="0 0 1019 1019" fill="none" xmlns="http://www.w3.org/2000/svg">
<g opacity="0.5">
<path d="M714.509 231.002L597.003 299.867" stroke="#B2B2B2"/>
<path d="M645.644 113.497L528.138 182.361" stroke="url(#paint0_linear_15_2063)"/>
<path d="M597.003 299.867L528.138 182.361" stroke="#B2B2B2"/>
<path d="M714.509 231.002L645.644 113.496" stroke="#B2B2B2"/>
<path d="M597.003 299.867L440.328 391.686" stroke="#B2B2B2"/>
<path d="M528.138 182.361L371.464 274.18" stroke="url(#paint1_linear_15_2063)"/>
<path d="M440.328 391.686L371.464 274.18" stroke="#B2B2B2"/>
<path d="M597.003 299.867L528.138 182.361" stroke="url(#paint2_linear_15_2063)"/>
<path d="M97.2833 434.864L214.789 366" stroke="#B2B2B2"/>
<path d="M166.148 552.37L283.654 483.506" stroke="#B2B2B2"/>
<path d="M214.789 366L283.654 483.506" stroke="#B2B2B2"/>
<path d="M97.2833 434.864L166.148 552.37" stroke="#B2B2B2"/>
<path d="M214.789 366L371.464 274.181" stroke="url(#paint3_linear_15_2063)"/>
<path d="M283.654 483.505L440.328 391.686" stroke="#B2B2B2"/>
<path d="M214.789 366L283.654 483.506" stroke="#B2B2B2"/>
<path d="M440.328 391.686L557.834 322.822" stroke="#B2B2B2"/>
<path d="M509.192 509.192L626.698 440.328" stroke="#B2B2B2"/>
<path d="M557.834 322.822L626.698 440.328" stroke="#B2B2B2"/>
<path d="M557.833 322.822L714.508 231.003" stroke="#B2B2B2"/>
<path d="M626.698 440.328L783.373 348.509" stroke="#B2B2B2"/>
<path d="M714.508 231.002L783.373 348.508" stroke="url(#paint4_linear_15_2063)"/>
<path d="M557.833 322.822L626.698 440.328" stroke="#B2B2B2"/>
<path d="M509.193 509.192L391.687 578.056" stroke="#B2B2B2"/>
<path d="M440.328 391.686L322.822 460.55" stroke="#B2B2B2"/>
<path d="M391.687 578.056L322.823 460.551" stroke="#B2B2B2"/>
<path d="M391.687 578.056L235.012 669.876" stroke="#B2B2B2"/>
<path d="M322.822 460.55L166.148 552.37" stroke="#B2B2B2"/>
<path d="M235.012 669.876L166.148 552.37" stroke="url(#paint5_linear_15_2063)"/>
<path d="M391.687 578.056L322.822 460.551" stroke="#B2B2B2"/>
<path d="M852.159 465.995L734.653 534.859" stroke="#B2B2B2"/>
<path d="M783.295 348.489L665.789 417.353" stroke="#B2B2B2"/>
<path d="M734.653 534.859L665.789 417.353" stroke="#B2B2B2"/>
<path d="M852.159 465.995L783.295 348.489" stroke="#B2B2B2"/>
<path d="M734.653 534.859L577.978 626.678" stroke="#B2B2B2"/>
<path d="M665.789 417.353L509.114 509.172" stroke="#B2B2B2"/>
<path d="M577.978 626.678L509.114 509.172" stroke="#B2B2B2"/>
<path d="M734.653 534.859L665.788 417.353" stroke="url(#paint6_linear_15_2063)"/>
<path d="M234.934 669.856L352.44 600.991" stroke="#B2B2B2"/>
<path d="M303.798 787.362L421.304 718.497" stroke="#B2B2B2"/>
<path d="M352.44 600.991L421.304 718.497" stroke="#B2B2B2"/>
<path d="M234.934 669.856L303.798 787.362" stroke="#B2B2B2"/>
<path d="M352.44 600.991L509.115 509.172" stroke="url(#paint7_linear_15_2063)"/>
<path d="M421.304 718.497L577.979 626.678" stroke="#B2B2B2"/>
<path d="M352.44 600.991L421.305 718.497" stroke="#B2B2B2"/>
<path d="M577.978 626.678L695.484 557.814" stroke="#B2B2B2"/>
<path d="M646.843 744.184L764.348 675.319" stroke="#B2B2B2"/>
<path d="M695.484 557.814L764.349 675.319" stroke="#B2B2B2"/>
<path d="M695.484 557.814L852.159 465.994" stroke="url(#paint8_linear_15_2063)"/>
<path d="M764.349 675.319L921.023 583.5" stroke="url(#paint9_linear_15_2063)"/>
<path d="M852.159 465.994L921.023 583.5" stroke="#B2B2B2"/>
<path d="M695.484 557.814L764.349 675.319" stroke="#B2B2B2"/>
<path d="M646.843 744.184L529.337 813.048" stroke="#B2B2B2"/>
<path d="M577.978 626.678L460.473 695.542" stroke="#B2B2B2"/>
<path d="M529.337 813.048L460.473 695.542" stroke="#B2B2B2"/>
<path d="M529.337 813.048L372.663 904.867" stroke="#B2B2B2"/>
<path d="M460.473 695.542L303.798 787.362" stroke="#B2B2B2"/>
<path d="M372.662 904.868L303.798 787.362" stroke="#B2B2B2"/>
<path d="M529.337 813.048L460.473 695.542" stroke="url(#paint10_linear_15_2063)"/>
</g>
<defs>
<linearGradient id="paint0_linear_15_2063" x1="621.652" y1="107.235" x2="562.83" y2="160.097" gradientUnits="userSpaceOnUse">
<stop stop-color="#13B0F5"/>
<stop offset="1" stop-color="#CA24B4"/>
</linearGradient>
<linearGradient id="paint1_linear_15_2063" x1="527.723" y1="183.954" x2="427.61" y2="316.566" gradientUnits="userSpaceOnUse">
<stop stop-color="#E70FAA"/>
<stop offset="1" stop-color="#13B0F5"/>
</linearGradient>
<linearGradient id="paint2_linear_15_2063" x1="603.264" y1="275.875" x2="550.402" y2="217.053" gradientUnits="userSpaceOnUse">
<stop stop-color="#13B0F5"/>
<stop offset="1" stop-color="#CA24B4"/>
</linearGradient>
<linearGradient id="paint3_linear_15_2063" x1="246.778" y1="374.349" x2="325.208" y2="303.866" gradientUnits="userSpaceOnUse">
<stop stop-color="#00C0FD"/>
<stop offset="0.421875" stop-color="#E70FAA"/>
<stop offset="1" stop-color="#00C0FD"/>
</linearGradient>
<linearGradient id="paint4_linear_15_2063" x1="708.246" y1="254.994" x2="761.109" y2="313.816" gradientUnits="userSpaceOnUse">
<stop stop-color="#13B0F5"/>
<stop offset="0.0001" stop-color="#505685"/>
<stop offset="0.317708" stop-color="#CA24B4"/>
<stop offset="1" stop-color="#13B0F5"/>
</linearGradient>
<linearGradient id="paint5_linear_15_2063" x1="235.012" y1="669.876" x2="134.428" y2="594.956" gradientUnits="userSpaceOnUse">
<stop stop-color="#8E34FF"/>
<stop offset="0.494792" stop-color="#CA24B4"/>
<stop offset="1" stop-color="#8E34FF"/>
</linearGradient>
<linearGradient id="paint6_linear_15_2063" x1="740.915" y1="510.867" x2="688.052" y2="452.045" gradientUnits="userSpaceOnUse">
<stop stop-color="#CA24B4"/>
<stop offset="0.234375" stop-color="#13B0F5"/>
</linearGradient>
<linearGradient id="paint7_linear_15_2063" x1="392.509" y1="577.846" x2="465.883" y2="479.786" gradientUnits="userSpaceOnUse">
<stop stop-color="#13B0F5"/>
<stop offset="0.75" stop-color="#CA24B4"/>
<stop offset="1" stop-color="#13B0F5"/>
</linearGradient>
<linearGradient id="paint8_linear_15_2063" x1="727.473" y1="566.163" x2="805.903" y2="495.68" gradientUnits="userSpaceOnUse">
<stop stop-color="#8643DC"/>
<stop offset="0.0001" stop-color="#8643DC"/>
<stop offset="0.317708" stop-color="#CA24B4"/>
<stop offset="1" stop-color="#8643DC"/>
</linearGradient>
<linearGradient id="paint9_linear_15_2063" x1="796.338" y1="683.668" x2="874.767" y2="613.185" gradientUnits="userSpaceOnUse">
<stop stop-color="#8643DC"/>
<stop offset="0.0001" stop-color="#8643DC"/>
<stop offset="0.317708" stop-color="#CA24B4"/>
<stop offset="1" stop-color="#8643DC"/>
</linearGradient>
<linearGradient id="paint10_linear_15_2063" x1="529.337" y1="813.048" x2="428.753" y2="738.129" gradientUnits="userSpaceOnUse">
<stop stop-color="#13B0F5"/>
<stop offset="0.0582928" stop-color="#CA24B4"/>
<stop offset="1" stop-color="#13B0F5"/>
</linearGradient>
</defs>
</svg>
