<svg width="573" height="784" viewBox="0 0 573 784" fill="none" xmlns="http://www.w3.org/2000/svg">
<path d="M666.509 231.003L549.003 299.867" stroke="#B2B2B2"/>
<path d="M597.645 113.497L480.139 182.361" stroke="url(#paint0_linear_15_2064)"/>
<path d="M549.003 299.867L480.139 182.361" stroke="#B2B2B2"/>
<path d="M666.509 231.003L597.645 113.497" stroke="#B2B2B2"/>
<path d="M549.003 299.867L392.328 391.686" stroke="#B2B2B2"/>
<path d="M480.139 182.361L323.464 274.181" stroke="url(#paint1_linear_15_2064)"/>
<path d="M392.329 391.687L323.464 274.181" stroke="#B2B2B2"/>
<path d="M549.003 299.867L480.139 182.361" stroke="url(#paint2_linear_15_2064)"/>
<path d="M49.2837 434.865L166.79 366" stroke="#B2B2B2"/>
<path d="M118.148 552.37L235.654 483.506" stroke="#B2B2B2"/>
<path d="M166.79 366L235.654 483.506" stroke="#B2B2B2"/>
<path d="M49.2837 434.865L118.148 552.37" stroke="#B2B2B2"/>
<path d="M166.79 366L323.464 274.181" stroke="url(#paint3_linear_15_2064)"/>
<path d="M235.654 483.506L392.329 391.687" stroke="#B2B2B2"/>
<path d="M166.79 366L235.654 483.506" stroke="#B2B2B2"/>
<path d="M392.328 391.687L509.834 322.822" stroke="#B2B2B2"/>
<path d="M461.193 509.193L578.699 440.328" stroke="#B2B2B2"/>
<path d="M509.834 322.822L578.699 440.328" stroke="#B2B2B2"/>
<path d="M509.834 322.822L666.509 231.003" stroke="#B2B2B2"/>
<path d="M509.834 322.822L578.698 440.328" stroke="#B2B2B2"/>
<path d="M461.193 509.192L343.687 578.057" stroke="#B2B2B2"/>
<path d="M392.329 391.686L274.823 460.551" stroke="#B2B2B2"/>
<path d="M343.687 578.057L274.823 460.551" stroke="#B2B2B2"/>
<path d="M343.687 578.057L187.012 669.876" stroke="#B2B2B2"/>
<path d="M274.823 460.551L118.148 552.37" stroke="#B2B2B2"/>
<path d="M187.013 669.876L118.148 552.37" stroke="url(#paint4_linear_15_2064)"/>
<path d="M343.687 578.057L274.823 460.551" stroke="#B2B2B2"/>
<defs>
<linearGradient id="paint0_linear_15_2064" x1="573.653" y1="107.235" x2="514.831" y2="160.098" gradientUnits="userSpaceOnUse">
<stop stop-color="#13B0F5"/>
<stop offset="1" stop-color="#CA24B4"/>
</linearGradient>
<linearGradient id="paint1_linear_15_2064" x1="479.723" y1="183.954" x2="379.611" y2="316.567" gradientUnits="userSpaceOnUse">
<stop stop-color="#E70FAA"/>
<stop offset="1" stop-color="#13B0F5"/>
</linearGradient>
<linearGradient id="paint2_linear_15_2064" x1="555.265" y1="275.875" x2="502.402" y2="217.053" gradientUnits="userSpaceOnUse">
<stop stop-color="#13B0F5"/>
<stop offset="1" stop-color="#CA24B4"/>
</linearGradient>
<linearGradient id="paint3_linear_15_2064" x1="198.778" y1="374.349" x2="277.208" y2="303.866" gradientUnits="userSpaceOnUse">
<stop stop-color="#00C0FD"/>
<stop offset="0.421875" stop-color="#E70FAA"/>
<stop offset="1" stop-color="#00C0FD"/>
</linearGradient>
<linearGradient id="paint4_linear_15_2064" x1="187.013" y1="669.876" x2="86.4282" y2="594.956" gradientUnits="userSpaceOnUse">
<stop stop-color="#8E34FF"/>
<stop offset="0.494792" stop-color="#CA24B4"/>
<stop offset="1" stop-color="#8E34FF"/>
</linearGradient>
</defs>
</svg>
