<svg width="435" height="784" viewBox="0 0 435 784" fill="none" xmlns="http://www.w3.org/2000/svg">
<path d="M548.729 299.879L392.054 391.698" stroke="#B2B2B2"/>
<path d="M479.865 182.373L323.19 274.192" stroke="#B2B2B2"/>
<path d="M392.054 391.698L323.19 274.192" stroke="#B2B2B2"/>
<path d="M49.0095 434.876L166.515 366.011" stroke="#B2B2B2"/>
<path d="M117.874 552.382L235.38 483.517" stroke="#B2B2B2"/>
<path d="M166.516 366.011L235.38 483.517" stroke="#B2B2B2"/>
<path d="M49.0095 434.876L117.874 552.382" stroke="#B2B2B2"/>
<path d="M166.516 366.011L323.191 274.192" stroke="url(#paint0_linear_15_2110)"/>
<path d="M235.38 483.517L392.055 391.698" stroke="#B2B2B2"/>
<path d="M166.516 366.011L235.381 483.517" stroke="#B2B2B2"/>
<path d="M392.054 391.698L509.56 322.834" stroke="#B2B2B2"/>
<path d="M460.919 509.204L343.413 578.068" stroke="#B2B2B2"/>
<path d="M392.054 391.698L274.549 460.562" stroke="#B2B2B2"/>
<path d="M343.413 578.068L274.549 460.562" stroke="#B2B2B2"/>
<path d="M343.413 578.068L186.739 669.887" stroke="#B2B2B2"/>
<path d="M274.549 460.562L117.874 552.382" stroke="#B2B2B2"/>
<path d="M186.739 669.888L117.874 552.382" stroke="#B2B2B2"/>
<path d="M343.413 578.068L274.549 460.562" stroke="url(#paint1_linear_15_2110)"/>
<defs>
<linearGradient id="paint0_linear_15_2110" x1="206.585" y1="342.866" x2="279.959" y2="244.806" gradientUnits="userSpaceOnUse">
<stop stop-color="#13B0F5"/>
<stop offset="0.75" stop-color="#CA24B4"/>
<stop offset="1" stop-color="#13B0F5"/>
</linearGradient>
<linearGradient id="paint1_linear_15_2110" x1="343.413" y1="578.068" x2="242.829" y2="503.149" gradientUnits="userSpaceOnUse">
<stop stop-color="#13B0F5"/>
<stop offset="0.0582928" stop-color="#CA24B4"/>
<stop offset="1" stop-color="#13B0F5"/>
</linearGradient>
</defs>
</svg>
